<svg width="231" height="150" viewBox="0 0 231 150" fill="none" xmlns="http://www.w3.org/2000/svg">
<path d="M37 148.114V24.7945H94.16L107.11 36.3345H192.14V148.114H37Z" fill="#ECECEC"/>
<path d="M192.14 149.114H37C36.7348 149.114 36.4804 149.009 36.2929 148.822C36.1054 148.634 36 148.38 36 148.114V24.7945C36 24.5293 36.1054 24.2749 36.2929 24.0874C36.4804 23.8998 36.7348 23.7945 37 23.7945H94.16C94.4031 23.7948 94.6377 23.8837 94.82 24.0445L107.49 35.3345H192.14C192.405 35.3345 192.66 35.4398 192.847 35.6274C193.035 35.8149 193.14 36.0693 193.14 36.3345V148.114C193.14 148.38 193.035 148.634 192.847 148.822C192.66 149.009 192.405 149.114 192.14 149.114ZM38 147.114H191.14V37.3345H107.14C106.893 37.3366 106.655 37.2476 106.47 37.0845L93.81 25.7945H38V147.114Z" fill="#686868"/>
<path d="M174.686 0.994854L43.6381 13.3595L56.0657 145.074L187.114 132.71L174.686 0.994854Z" fill="white"/>
<path d="M56.06 146.074C55.8112 146.076 55.5709 145.984 55.386 145.818C55.2011 145.651 55.0849 145.422 55.06 145.174L42.64 13.4545C42.6149 13.1906 42.6956 12.9276 42.8644 12.7232C43.0332 12.5188 43.2762 12.3898 43.54 12.3645L174.59 0.00448471C174.854 -0.0205819 175.117 0.0601376 175.321 0.228896C175.526 0.397654 175.655 0.640646 175.68 0.904486L188.1 132.624C188.126 132.887 188.047 133.15 187.88 133.354C187.796 133.456 187.693 133.541 187.576 133.603C187.459 133.664 187.331 133.702 187.2 133.714L56.2 146.074H56.06ZM44.72 14.2645L56.93 143.984L185.99 131.814L173.78 2.08449L44.72 14.2645Z" fill="#686868"/>
<path d="M188.06 17.2145H56.43V136.264H188.06V17.2145Z" fill="white"/>
<path d="M188.06 137.274H56.43C56.1648 137.274 55.9104 137.169 55.7229 136.982C55.5354 136.794 55.43 136.54 55.43 136.274V17.2145C55.43 16.9493 55.5354 16.6949 55.7229 16.5074C55.9104 16.3198 56.1648 16.2145 56.43 16.2145H188.06C188.325 16.2145 188.58 16.3198 188.767 16.5074C188.955 16.6949 189.06 16.9493 189.06 17.2145V136.274C189.06 136.54 188.955 136.794 188.767 136.982C188.58 137.169 188.325 137.274 188.06 137.274ZM57.43 135.274H187.06V18.2145H57.43V135.274Z" fill="#686868"/>
<path d="M171.93 34.1845H145.59C145.325 34.1845 145.07 34.0791 144.883 33.8916C144.695 33.7041 144.59 33.4497 144.59 33.1845C144.59 32.9193 144.695 32.6649 144.883 32.4774C145.07 32.2898 145.325 32.1845 145.59 32.1845H171.93C172.195 32.1845 172.45 32.2898 172.637 32.4774C172.825 32.6649 172.93 32.9193 172.93 33.1845C172.93 33.4497 172.825 33.7041 172.637 33.8916C172.45 34.0791 172.195 34.1845 171.93 34.1845Z" fill="#CCCCCC"/>
<path d="M171.93 46.8045H74.02C73.7548 46.8045 73.5004 46.6991 73.3129 46.5116C73.1254 46.3241 73.02 46.0697 73.02 45.8045C73.02 45.5393 73.1254 45.2849 73.3129 45.0974C73.5004 44.9098 73.7548 44.8045 74.02 44.8045H171.93C172.195 44.8045 172.45 44.9098 172.637 45.0974C172.825 45.2849 172.93 45.5393 172.93 45.8045C172.93 46.0697 172.825 46.3241 172.637 46.5116C172.45 46.6991 172.195 46.8045 171.93 46.8045Z" fill="#CCCCCC"/>
<path d="M171.93 59.4245H74.02C73.7548 59.4245 73.5004 59.3191 73.3129 59.1316C73.1254 58.9441 73.02 58.6897 73.02 58.4245C73.02 58.1593 73.1254 57.9049 73.3129 57.7174C73.5004 57.5298 73.7548 57.4245 74.02 57.4245H171.93C172.195 57.4245 172.45 57.5298 172.637 57.7174C172.825 57.9049 172.93 58.1593 172.93 58.4245C172.93 58.6897 172.825 58.9441 172.637 59.1316C172.45 59.3191 172.195 59.4245 171.93 59.4245Z" fill="#CCCCCC"/>
<path d="M171.93 72.0545H74.02C73.7548 72.0545 73.5004 71.9491 73.3129 71.7616C73.1254 71.5741 73.02 71.3197 73.02 71.0545C73.02 70.7893 73.1254 70.5349 73.3129 70.3474C73.5004 70.1598 73.7548 70.0545 74.02 70.0545H171.93C172.195 70.0545 172.45 70.1598 172.637 70.3474C172.825 70.5349 172.93 70.7893 172.93 71.0545C172.93 71.3197 172.825 71.5741 172.637 71.7616C172.45 71.9491 172.195 72.0545 171.93 72.0545Z" fill="#CCCCCC"/>
<path d="M37 148.114L60.65 67.5845H133.29L143.99 57.7345H220.86L193.27 148.114H37Z" fill="#ECECEC"/>
<path d="M193.27 149.114H37C36.8448 149.114 36.6916 149.078 36.5528 149.009C36.4139 148.939 36.2931 148.839 36.2 148.714C36.1069 148.59 36.0439 148.446 36.0161 148.293C35.9884 148.141 35.9965 147.984 36.04 147.834L59.69 67.3045C59.7523 67.09 59.8847 66.9027 60.0659 66.7722C60.2472 66.6417 60.4668 66.5756 60.69 66.5845H132.93L143.35 56.9945C143.533 56.8278 143.772 56.7351 144.02 56.7345H220.89C221.045 56.7345 221.198 56.7706 221.337 56.8401C221.476 56.9095 221.597 57.0103 221.69 57.1345C221.785 57.2598 221.849 57.4057 221.876 57.5604C221.904 57.715 221.895 57.874 221.85 58.0245L194.25 148.404C194.187 148.614 194.057 148.796 193.88 148.925C193.703 149.053 193.488 149.119 193.27 149.114ZM38.34 147.114H192.53L219.53 58.7345H144.38L133.93 68.3245C133.744 68.4935 133.501 68.5863 133.25 68.5845H61.4L38.34 147.114Z" fill="#686868"/>
<path d="M186.5 136.894H154.4C154.135 136.894 153.88 136.789 153.693 136.602C153.505 136.414 153.4 136.16 153.4 135.894C153.4 135.629 153.505 135.375 153.693 135.187C153.88 135 154.135 134.894 154.4 134.894H186.5C186.765 134.894 187.02 135 187.207 135.187C187.395 135.375 187.5 135.629 187.5 135.894C187.5 136.16 187.395 136.414 187.207 136.602C187.02 136.789 186.765 136.894 186.5 136.894Z" fill="#C5C5C5"/>
<path d="M85.62 34.1845H74.02C73.7548 34.1845 73.5004 34.0791 73.3129 33.8916C73.1254 33.7041 73.02 33.4497 73.02 33.1845C73.02 32.9193 73.1254 32.6649 73.3129 32.4774C73.5004 32.2898 73.7548 32.1845 74.02 32.1845H85.62C85.8852 32.1845 86.1396 32.2898 86.3271 32.4774C86.5146 32.6649 86.62 32.9193 86.62 33.1845C86.62 33.4497 86.5146 33.7041 86.3271 33.8916C86.1396 34.0791 85.8852 34.1845 85.62 34.1845Z" fill="#CCCCCC"/>
</svg>
